{"title":"Man.of.Steel.2013.hdrip.AC3.720p.Vie","uid":9105545,"size":2481223508,"categoryP":"video","categoryS":"hd___movies","magnet":"?xt=urn:btih:e6fdfb2afb0e3bf58dc41e3634a50d272c456a9e&amp;dn=Man.of.Steel.2013.hdrip.AC3.720p.Vie&amp;tr=udp%3A%2F%2Ftracker.openbittorrent.com%3A80&amp;tr=udp%3A%2F%2Fopen.demonii.com%3A1337&amp;tr=udp%3A%2F%2Ftracker.coppersurfer.tk%3A6969&amp;tr=udp%3A%2F%2Fexodus.desync.com%3A6969","seeders":1,"leechers":0,"uploader":"jessketeer","files":-1,"time":1382862247,"description":"VIETNAMESE HARDSUBBED\nVIETNAMESE HARDSUBBED\nVIETNAMESE HARDSUBBED\nVIETNAMESE HARDSUBBED\nVIETNAMESE HARDSUBBED\nVIETNAMESE HARDSUBBED\nVIETNAMESE HARDSUBBED\nVIETNAMESE HARDSUBBED\nVIETNAMESE HARDSUBBED\nVIETNAMESE HARDSUBBED\nVIETNAMESE HARDSUBBED\nVIETNAMESE HARDSUBBED\nVIETNAMESE HARDSUBBED\nVIETNAMESE HARDSUBBED\nVIETNAMESE HARDSUBBED\nVIETNAMESE HARDSUBBED\n\n\nID                                       : 1\nFormat                                   : mkv\nFormat/Info                              : Advanced Video Codec\nFormat profile                           : &lt;a class=&quot;__cf_email__&quot; href=&quot;/cdn-cgi/l/email-protection&quot; data-cfemail=&quot;327a5b555a727e071c03&quot;&gt;[email&amp;#160;protected]&lt;/a&gt;&lt;script cf-hash='f9e31' type=&quot;text/javascript&quot;&gt;\n/* &lt;![CDATA[ */!function(){try{var t=&quot;currentScript&quot;in document?document.currentScript:function(){for(var t=document.getElementsByTagName(&quot;script&quot;),e=t.length;e--;)if(t[e].getAttribute(&quot;cf-hash&quot;))return t[e]}();if(t&amp;&amp;t.previousSibling){var e,r,n,i,c=t.previousSibling,a=c.getAttribute(&quot;data-cfemail&quot;);if(a){for(e=&quot;&quot;,r=parseInt(a.substr(0,2),16),n=2;a.length-n;n+=2)i=parseInt(a.substr(n,2),16)^r,e+=String.fromCharCode(i);e=document.createTextNode(e),c.parentNode.replaceChild(e,c)}}}catch(u){}}();/* ]]&gt; */&lt;/script&gt;\nFormat settings, CABAC                   : Yes\nFormat settings, ReFrames                : 4 frames\nCodec ID                                 : V_MPEG4/ISO/AVC\nDuration                                 : 2h 23mn\nBit rate                                 : 2 134 Kbps\nNominal bit rate                         : 6 626 Kbps\nWidth                                    : 1 280 pixels\nHeight                                   : 536 pixels\nDisplay aspect ratio                     : 2.40:1\nFrame rate mode                          : Constant\nFrame rate                               : 29.970 fps\nColor space                              : YUV\nChroma subsampling                       : 4:2:0\nBit depth                                : 8 bits\nScan type                                : Progressive\nBits/(Pixel*Frame)                       : 0.104\nStream size                              : 2.14 GiB (92%)\nWriting library                          : x264 core 130 r2273 b3065e6\n\nAudio\nID                                       : 2\nFormat                                   : AC-3\nFormat/Info                              : Audio Coding 3\nMode extension                           : CM (complete main)\nFormat settings, Endianness              : Big\nCodec ID                                 : A_AC3\nDuration                                 : 2h 23mn\nBit rate mode                            : Constant\nBit rate                                 : 128 Kbps\nChannel(s)                               : 2 channels\nChannel positions                        : Front: L R\nSampling rate                            : 48.0 KHz\nBit depth                                : 16 bits\nCompression mode                         : Lossy\nStream size                              : 131 MiB (6%)\nDefault                                  : Yes\nForced                                   : No\n\n","torrent":{"xt":"urn:btih:e6fdfb2afb0e3bf58dc41e3634a50d272c456a9e","amp;dn":"Man.of.Steel.2013.hdrip.AC3.720p.Vie","amp;tr":["udp%3A%2F%2Ftracker.openbittorrent.com%3A80","udp%3A%2F%2Fopen.demonii.com%3A1337","udp%3A%2F%2Ftracker.coppersurfer.tk%3A6969","udp%3A%2F%2Fexodus.desync.com%3A6969"],"infoHash":"e6fdfb2afb0e3bf58dc41e3634a50d272c456a9e","infoHashBuffer":{"type":"Buffer","data":[230,253,251,42,251,14,59,245,141,196,30,54,52,165,13,39,44,69,106,158]},"announce":[],"urlList":[]}}